# xmcd
#
# Track frame offsets:
# 150
# 16057
# 31032
# 45467
# 60370
# 78685
# 93830
# 106962
# 126175
# 136880
# 154357
# 170245
#
# Disc length: 2815 seconds
#
#
# Revision: 0
# Processed by: cddbd v1.5.1PL0 Copyright (c) Steve Scherf et al.
# Submitted via: FreeRIP 2.92 
#
DISCID=900afd0c
DTITLE=Kate Venable - We Were Meant To Be
DYEAR=2001
DGENRE=Contemporary Christian
TTITLE0=Crossroads
TTITLE1=Dim Reflections
TTITLE2=Inside
TTITLE3=How Much Losing Will It Take
TTITLE4=There
TTITLE5=Like Father Like Son
TTITLE6=Who's to Blame
TTITLE7=Not Deserving
TTITLE8=More
TTITLE9=Pointing Fingers
TTITLE10=Prarie Song
TTITLE11=Dancing
EXTD=None
EXTT0=
EXTT1=
EXTT2=
EXTT3=
EXTT4=
EXTT5=
EXTT6=
EXTT7=
EXTT8=
EXTT9=
EXTT10=
EXTT11=
PLAYORDER=
